<svg width="39" height="39" viewBox="0 0 39 39" fill="none" xmlns="http://www.w3.org/2000/svg">
<path fill-rule="evenodd" clip-rule="evenodd" d="M39 19.5C39 24.6717 36.9455 29.6316 33.2886 33.2886C29.6316 36.9455 24.6717 39 19.5 39C14.3283 39 9.36838 36.9455 5.71142 33.2886C2.05446 29.6316 0 24.6717 0 19.5C0 14.3283 2.05446 9.36838 5.71142 5.71142C9.36838 2.05446 14.3283 0 19.5 0C24.6717 0 29.6316 2.05446 33.2886 5.71142C36.9455 9.36838 39 14.3283 39 19.5ZM20.7188 9.75C20.7188 9.42677 20.5903 9.11677 20.3618 8.88821C20.1332 8.65965 19.8232 8.53125 19.5 8.53125C19.1768 8.53125 18.8668 8.65965 18.6382 8.88821C18.4097 9.11677 18.2812 9.42677 18.2812 9.75V18.2812H9.75C9.42677 18.2812 9.11677 18.4097 8.88821 18.6382C8.65965 18.8668 8.53125 19.1768 8.53125 19.5C8.53125 19.8232 8.65965 20.1332 8.88821 20.3618C9.11677 20.5903 9.42677 20.7188 9.75 20.7188H18.2812V29.25C18.2812 29.5732 18.4097 29.8832 18.6382 30.1118C18.8668 30.3403 19.1768 30.4688 19.5 30.4688C19.8232 30.4688 20.1332 30.3403 20.3618 30.1118C20.5903 29.8832 20.7188 29.5732 20.7188 29.25V20.7188H29.25C29.5732 20.7188 29.8832 20.5903 30.1118 20.3618C30.3403 20.1332 30.4688 19.8232 30.4688 19.5C30.4688 19.1768 30.3403 18.8668 30.1118 18.6382C29.8832 18.4097 29.5732 18.2812 29.25 18.2812H20.7188V9.75Z" fill="black"/>
</svg>
