<svg width="51" height="50" viewBox="0 0 51 50" fill="none" xmlns="http://www.w3.org/2000/svg">
<path d="M28.6875 15.625C23.4058 15.625 15.9375 19.8219 15.9375 25C15.9375 21.6848 17.2808 18.5054 19.6719 16.1612C22.063 13.817 25.306 12.5 28.6875 12.5V15.625Z" fill="black"/>
<path fill-rule="evenodd" clip-rule="evenodd" d="M45.6864 9.37503H39.2636C36.131 7.33108 32.4505 6.24359 28.6875 6.25003C24.9246 6.24396 21.2442 7.33142 18.1114 9.37503H5.31356C2.38106 9.37503 0 11.7063 0 14.5844V35.4157C0 38.2907 2.37788 40.625 5.31356 40.625H18.1114C21.1395 42.6 24.7764 43.75 28.6875 43.75C32.4504 43.7559 36.1307 42.6685 39.2636 40.625H45.6864C48.6189 40.625 51 38.2938 51 35.4157V14.5844C51 11.7094 48.6221 9.37503 45.6864 9.37503ZM4.78125 15.625C5.20394 15.625 5.60932 15.4604 5.9082 15.1674C6.20709 14.8744 6.375 14.4769 6.375 14.0625C6.375 13.6481 6.20709 13.2507 5.9082 12.9577C5.60932 12.6646 5.20394 12.5 4.78125 12.5C4.35856 12.5 3.95318 12.6646 3.6543 12.9577C3.35541 13.2507 3.1875 13.6481 3.1875 14.0625C3.1875 14.4769 3.35541 14.8744 3.6543 15.1674C3.95318 15.4604 4.35856 15.625 4.78125 15.625ZM28.6875 40.625C32.9144 40.625 36.9682 38.9788 39.957 36.0486C42.9459 33.1183 44.625 29.144 44.625 25C44.625 20.856 42.9459 16.8817 39.957 13.9515C36.9682 11.0212 32.9144 9.37503 28.6875 9.37503C24.4606 9.37503 20.4068 11.0212 17.418 13.9515C14.4291 16.8817 12.75 20.856 12.75 25C12.75 29.144 14.4291 33.1183 17.418 36.0486C20.4068 38.9788 24.4606 40.625 28.6875 40.625Z" fill="black"/>
<path d="M6.375 9.375C6.375 8.5462 6.71082 7.75134 7.3086 7.16529C7.90637 6.57924 8.71712 6.25 9.5625 6.25H12.75C13.5954 6.25 14.4061 6.57924 15.0039 7.16529C15.6017 7.75134 15.9375 8.5462 15.9375 9.375C15.9375 10.2038 15.6017 10.9987 15.0039 11.5847C14.4061 12.1708 13.5954 12.5 12.75 12.5H9.5625C8.71712 12.5 7.90637 12.1708 7.3086 11.5847C6.71082 10.9987 6.375 10.2038 6.375 9.375Z" fill="black"/>
</svg>
