<svg width="27" height="28" viewBox="0 0 27 28" fill="none" xmlns="http://www.w3.org/2000/svg">
<path fill-rule="evenodd" clip-rule="evenodd" d="M7.83968 2.8806C7.91806 2.79911 8.01117 2.73446 8.11367 2.69035C8.21618 2.64624 8.32607 2.62354 8.43705 2.62354C8.54804 2.62354 8.65793 2.64624 8.76044 2.69035C8.86294 2.73446 8.95605 2.79911 9.03443 2.8806L19.1594 13.3806C19.238 13.4619 19.3003 13.5584 19.3429 13.6647C19.3854 13.771 19.4073 13.885 19.4073 14.0001C19.4073 14.1152 19.3854 14.2292 19.3429 14.3355C19.3003 14.4418 19.238 14.5383 19.1594 14.6196L9.03443 25.1196C8.876 25.2839 8.66111 25.3762 8.43705 25.3762C8.213 25.3762 7.99811 25.2839 7.83968 25.1196C7.68125 24.9553 7.59224 24.7325 7.59224 24.5001C7.59224 24.2677 7.68125 24.0449 7.83968 23.8806L17.369 14.0001L7.83968 4.1196C7.7611 4.03832 7.69876 3.94176 7.65623 3.83546C7.61369 3.72915 7.5918 3.61519 7.5918 3.5001C7.5918 3.38501 7.61369 3.27104 7.65623 3.16474C7.69876 3.05844 7.7611 2.96188 7.83968 2.8806Z" fill="white"/>
</svg>
