<svg width="27" height="28" viewBox="0 0 27 28" fill="none" xmlns="http://www.w3.org/2000/svg">
<path fill-rule="evenodd" clip-rule="evenodd" d="M19.1603 2.8806C19.0819 2.79911 18.9888 2.73446 18.8863 2.69035C18.7838 2.64624 18.6739 2.62354 18.5629 2.62354C18.452 2.62354 18.3421 2.64624 18.2396 2.69035C18.1371 2.73446 18.0439 2.79911 17.9656 2.8806L7.84057 13.3806C7.76199 13.4619 7.69965 13.5584 7.65712 13.6647C7.61458 13.771 7.59269 13.885 7.59269 14.0001C7.59269 14.1152 7.61458 14.2292 7.65712 14.3355C7.69965 14.4418 7.76199 14.5383 7.84057 14.6196L17.9656 25.1196C18.124 25.2839 18.3389 25.3762 18.5629 25.3762C18.787 25.3762 19.0019 25.2839 19.1603 25.1196C19.3188 24.9553 19.4078 24.7325 19.4078 24.5001C19.4078 24.2677 19.3188 24.0449 19.1603 23.8806L9.63101 14.0001L19.1603 4.1196C19.2389 4.03832 19.3012 3.94176 19.3438 3.83546C19.3863 3.72915 19.4082 3.61519 19.4082 3.5001C19.4082 3.38501 19.3863 3.27104 19.3438 3.16474C19.3012 3.05844 19.2389 2.96188 19.1603 2.8806Z" fill="white"/>
</svg>
