<svg width="46" height="47" viewBox="0 0 46 47" fill="none" xmlns="http://www.w3.org/2000/svg">
<path fill-rule="evenodd" clip-rule="evenodd" d="M26 43C31.3043 43 36.3914 40.9455 40.1421 37.2886C43.8929 33.6316 46 28.6717 46 23.5C46 18.3283 43.8929 13.3684 40.1421 9.71142C36.3914 6.05446 31.3043 4 26 4C20.6957 4 15.6086 6.05446 11.8579 9.71142C8.10714 13.3684 6 18.3283 6 23.5C6 28.6717 8.10714 33.6316 11.8579 37.2886C15.6086 40.9455 20.6957 43 26 43ZM28.325 20.0583L22.6 20.7578L22.395 21.6841L23.52 21.8864C24.255 22.057 24.4 22.3154 24.24 23.0296L22.395 31.4828C21.91 33.6692 22.6575 34.6979 24.415 34.6979C25.7775 34.6979 27.36 34.0836 28.0775 33.2403L28.2975 32.2262C27.7975 32.6553 27.0675 32.8259 26.5825 32.8259C25.895 32.8259 25.645 32.3554 25.8225 31.5267L28.325 20.0583ZM26 17.4062C26.663 17.4062 27.2989 17.1494 27.7678 16.6923C28.2366 16.2352 28.5 15.6152 28.5 14.9688C28.5 14.3223 28.2366 13.7023 27.7678 13.2452C27.2989 12.7881 26.663 12.5312 26 12.5312C25.337 12.5312 24.7011 12.7881 24.2322 13.2452C23.7634 13.7023 23.5 14.3223 23.5 14.9688C23.5 15.6152 23.7634 16.2352 24.2322 16.6923C24.7011 17.1494 25.337 17.4062 26 17.4062Z" fill="black"/>
</svg>
