<svg width="255" height="255" viewBox="0 0 255 255" fill="none" xmlns="http://www.w3.org/2000/svg">
<g clip-path="url(#clip0_43_12263)">
<path fill-rule="evenodd" clip-rule="evenodd" d="M199.219 31.875H55.7812V15.9375H199.219V31.875ZM39.8438 55.7812V199.219H23.9062V55.7812H39.8438ZM215.156 199.219V55.7812H231.094V199.219H215.156ZM55.7812 223.125H199.219V239.062H55.7812V223.125Z" fill="#28A745"/>
<path fill-rule="evenodd" clip-rule="evenodd" d="M223.125 47.8125C227.352 47.8125 231.406 46.1334 234.395 43.1445C237.383 40.1557 239.062 36.1019 239.062 31.875C239.062 27.6481 237.383 23.5943 234.395 20.6055C231.406 17.6166 227.352 15.9375 223.125 15.9375C218.898 15.9375 214.844 17.6166 211.855 20.6055C208.867 23.5943 207.188 27.6481 207.188 31.875C207.188 36.1019 208.867 40.1557 211.855 43.1445C214.844 46.1334 218.898 47.8125 223.125 47.8125ZM223.125 63.75C231.579 63.75 239.686 60.3918 245.664 54.414C251.642 48.4363 255 40.3288 255 31.875C255 23.4212 251.642 15.3137 245.664 9.33597C239.686 3.35825 231.579 0 223.125 0C214.671 0 206.564 3.35825 200.586 9.33597C194.608 15.3137 191.25 23.4212 191.25 31.875C191.25 40.3288 194.608 48.4363 200.586 54.414C206.564 60.3918 214.671 63.75 223.125 63.75ZM223.125 239.062C227.352 239.062 231.406 237.383 234.395 234.395C237.383 231.406 239.062 227.352 239.062 223.125C239.062 218.898 237.383 214.844 234.395 211.855C231.406 208.867 227.352 207.188 223.125 207.188C218.898 207.188 214.844 208.867 211.855 211.855C208.867 214.844 207.188 218.898 207.188 223.125C207.188 227.352 208.867 231.406 211.855 234.395C214.844 237.383 218.898 239.062 223.125 239.062ZM223.125 255C231.579 255 239.686 251.642 245.664 245.664C251.642 239.686 255 231.579 255 223.125C255 214.671 251.642 206.564 245.664 200.586C239.686 194.608 231.579 191.25 223.125 191.25C214.671 191.25 206.564 194.608 200.586 200.586C194.608 206.564 191.25 214.671 191.25 223.125C191.25 231.579 194.608 239.686 200.586 245.664C206.564 251.642 214.671 255 223.125 255ZM31.875 47.8125C36.1019 47.8125 40.1557 46.1334 43.1445 43.1445C46.1334 40.1557 47.8125 36.1019 47.8125 31.875C47.8125 27.6481 46.1334 23.5943 43.1445 20.6055C40.1557 17.6166 36.1019 15.9375 31.875 15.9375C27.6481 15.9375 23.5943 17.6166 20.6055 20.6055C17.6166 23.5943 15.9375 27.6481 15.9375 31.875C15.9375 36.1019 17.6166 40.1557 20.6055 43.1445C23.5943 46.1334 27.6481 47.8125 31.875 47.8125ZM31.875 63.75C40.3288 63.75 48.4363 60.3918 54.414 54.414C60.3918 48.4363 63.75 40.3288 63.75 31.875C63.75 23.4212 60.3918 15.3137 54.414 9.33597C48.4363 3.35825 40.3288 0 31.875 0C23.4212 0 15.3137 3.35825 9.33597 9.33597C3.35825 15.3137 0 23.4212 0 31.875C0 40.3288 3.35825 48.4363 9.33597 54.414C15.3137 60.3918 23.4212 63.75 31.875 63.75ZM31.875 239.062C36.1019 239.062 40.1557 237.383 43.1445 234.395C46.1334 231.406 47.8125 227.352 47.8125 223.125C47.8125 218.898 46.1334 214.844 43.1445 211.855C40.1557 208.867 36.1019 207.188 31.875 207.188C27.6481 207.188 23.5943 208.867 20.6055 211.855C17.6166 214.844 15.9375 218.898 15.9375 223.125C15.9375 227.352 17.6166 231.406 20.6055 234.395C23.5943 237.383 27.6481 239.062 31.875 239.062ZM31.875 255C40.3288 255 48.4363 251.642 54.414 245.664C60.3918 239.686 63.75 231.579 63.75 223.125C63.75 214.671 60.3918 206.564 54.414 200.586C48.4363 194.608 40.3288 191.25 31.875 191.25C23.4212 191.25 15.3137 194.608 9.33597 200.586C3.35825 206.564 0 214.671 0 223.125C0 231.579 3.35825 239.686 9.33597 245.664C15.3137 251.642 23.4212 255 31.875 255Z" fill="#28A745"/>
<path d="M76.7812 96.5234V92.4922L91.3359 92.4688V105.219C89.1016 107 86.7969 108.344 84.4219 109.25C82.0469 110.141 79.6094 110.586 77.1094 110.586C73.7344 110.586 70.6641 109.867 67.8984 108.43C65.1484 106.977 63.0703 104.883 61.6641 102.148C60.2578 99.4141 59.5547 96.3594 59.5547 92.9844C59.5547 89.6406 60.25 86.5234 61.6406 83.6328C63.0469 80.7266 65.0625 78.5703 67.6875 77.1641C70.3125 75.7578 73.3359 75.0547 76.7578 75.0547C79.2422 75.0547 81.4844 75.4609 83.4844 76.2734C85.5 77.0703 87.0781 78.1875 88.2188 79.625C89.3594 81.0625 90.2266 82.9375 90.8203 85.25L86.7188 86.375C86.2031 84.625 85.5625 83.25 84.7969 82.25C84.0312 81.25 82.9375 80.4531 81.5156 79.8594C80.0938 79.25 78.5156 78.9453 76.7812 78.9453C74.7031 78.9453 72.9062 79.2656 71.3906 79.9062C69.875 80.5312 68.6484 81.3594 67.7109 82.3906C66.7891 83.4219 66.0703 84.5547 65.5547 85.7891C64.6797 87.9141 64.2422 90.2188 64.2422 92.7031C64.2422 95.7656 64.7656 98.3281 65.8125 100.391C66.875 102.453 68.4141 103.984 70.4297 104.984C72.4453 105.984 74.5859 106.484 76.8516 106.484C78.8203 106.484 80.7422 106.109 82.6172 105.359C84.4922 104.594 85.9141 103.781 86.8828 102.922V96.5234H76.7812ZM97.4766 110V85.1094H101.273V88.8828C102.242 87.1172 103.133 85.9531 103.945 85.3906C104.773 84.8281 105.68 84.5469 106.664 84.5469C108.086 84.5469 109.531 85 111 85.9062L109.547 89.8203C108.516 89.2109 107.484 88.9062 106.453 88.9062C105.531 88.9062 104.703 89.1875 103.969 89.75C103.234 90.2969 102.711 91.0625 102.398 92.0469C101.93 93.5469 101.695 95.1875 101.695 96.9688V110H97.4766ZM130.547 101.984L134.906 102.523C134.219 105.07 132.945 107.047 131.086 108.453C129.227 109.859 126.852 110.562 123.961 110.562C120.32 110.562 117.43 109.445 115.289 107.211C113.164 104.961 112.102 101.812 112.102 97.7656C112.102 93.5781 113.18 90.3281 115.336 88.0156C117.492 85.7031 120.289 84.5469 123.727 84.5469C127.055 84.5469 129.773 85.6797 131.883 87.9453C133.992 90.2109 135.047 93.3984 135.047 97.5078C135.047 97.7578 135.039 98.1328 135.023 98.6328H116.461C116.617 101.367 117.391 103.461 118.781 104.914C120.172 106.367 121.906 107.094 123.984 107.094C125.531 107.094 126.852 106.688 127.945 105.875C129.039 105.062 129.906 103.766 130.547 101.984ZM116.695 95.1641H130.594C130.406 93.0703 129.875 91.5 129 90.4531C127.656 88.8281 125.914 88.0156 123.773 88.0156C121.836 88.0156 120.203 88.6641 118.875 89.9609C117.562 91.2578 116.836 92.9922 116.695 95.1641ZM157.266 101.984L161.625 102.523C160.938 105.07 159.664 107.047 157.805 108.453C155.945 109.859 153.57 110.562 150.68 110.562C147.039 110.562 144.148 109.445 142.008 107.211C139.883 104.961 138.82 101.812 138.82 97.7656C138.82 93.5781 139.898 90.3281 142.055 88.0156C144.211 85.7031 147.008 84.5469 150.445 84.5469C153.773 84.5469 156.492 85.6797 158.602 87.9453C160.711 90.2109 161.766 93.3984 161.766 97.5078C161.766 97.7578 161.758 98.1328 161.742 98.6328H143.18C143.336 101.367 144.109 103.461 145.5 104.914C146.891 106.367 148.625 107.094 150.703 107.094C152.25 107.094 153.57 106.688 154.664 105.875C155.758 105.062 156.625 103.766 157.266 101.984ZM143.414 95.1641H157.312C157.125 93.0703 156.594 91.5 155.719 90.4531C154.375 88.8281 152.633 88.0156 150.492 88.0156C148.555 88.0156 146.922 88.6641 145.594 89.9609C144.281 91.2578 143.555 92.9922 143.414 95.1641ZM166.945 110V85.1094H170.742V88.6484C172.57 85.9141 175.211 84.5469 178.664 84.5469C180.164 84.5469 181.539 84.8203 182.789 85.3672C184.055 85.8984 185 86.6016 185.625 87.4766C186.25 88.3516 186.688 89.3906 186.938 90.5938C187.094 91.375 187.172 92.7422 187.172 94.6953V110H182.953V94.8594C182.953 93.1406 182.789 91.8594 182.461 91.0156C182.133 90.1562 181.547 89.4766 180.703 88.9766C179.875 88.4609 178.898 88.2031 177.773 88.2031C175.977 88.2031 174.422 88.7734 173.109 89.9141C171.812 91.0547 171.164 93.2188 171.164 96.4062V110H166.945ZM69.4453 165V134.695H58.125V130.641H85.3594V134.695H73.9922V165H69.4453ZM89.5078 165V130.641H93.7266V142.969C95.6953 140.688 98.1797 139.547 101.18 139.547C103.023 139.547 104.625 139.914 105.984 140.648C107.344 141.367 108.312 142.367 108.891 143.648C109.484 144.93 109.781 146.789 109.781 149.227V165H105.562V149.227C105.562 147.117 105.102 145.586 104.18 144.633C103.273 143.664 101.984 143.18 100.312 143.18C99.0625 143.18 97.8828 143.508 96.7734 144.164C95.6797 144.805 94.8984 145.68 94.4297 146.789C93.9609 147.898 93.7266 149.43 93.7266 151.383V165H89.5078ZM132.539 165V161.344C130.602 164.156 127.969 165.562 124.641 165.562C123.172 165.562 121.797 165.281 120.516 164.719C119.25 164.156 118.305 163.453 117.68 162.609C117.07 161.75 116.641 160.703 116.391 159.469C116.219 158.641 116.133 157.328 116.133 155.531V140.109H120.352V153.914C120.352 156.117 120.438 157.602 120.609 158.367C120.875 159.477 121.438 160.352 122.297 160.992C123.156 161.617 124.219 161.93 125.484 161.93C126.75 161.93 127.938 161.609 129.047 160.969C130.156 160.312 130.938 159.43 131.391 158.32C131.859 157.195 132.094 155.57 132.094 153.445V140.109H136.312V165H132.539ZM142.945 165V140.109H146.719V143.602C147.5 142.383 148.539 141.406 149.836 140.672C151.133 139.922 152.609 139.547 154.266 139.547C156.109 139.547 157.617 139.93 158.789 140.695C159.977 141.461 160.812 142.531 161.297 143.906C163.266 141 165.828 139.547 168.984 139.547C171.453 139.547 173.352 140.234 174.68 141.609C176.008 142.969 176.672 145.07 176.672 147.914V165H172.477V149.32C172.477 147.633 172.336 146.422 172.055 145.688C171.789 144.938 171.297 144.336 170.578 143.883C169.859 143.43 169.016 143.203 168.047 143.203C166.297 143.203 164.844 143.789 163.688 144.961C162.531 146.117 161.953 147.977 161.953 150.539V165H157.734V148.828C157.734 146.953 157.391 145.547 156.703 144.609C156.016 143.672 154.891 143.203 153.328 143.203C152.141 143.203 151.039 143.516 150.023 144.141C149.023 144.766 148.297 145.68 147.844 146.883C147.391 148.086 147.164 149.82 147.164 152.086V165H142.945ZM186.82 165H182.906V130.641H187.125V142.898C188.906 140.664 191.18 139.547 193.945 139.547C195.477 139.547 196.922 139.859 198.281 140.484C199.656 141.094 200.781 141.961 201.656 143.086C202.547 144.195 203.242 145.539 203.742 147.117C204.242 148.695 204.492 150.383 204.492 152.18C204.492 156.445 203.438 159.742 201.328 162.07C199.219 164.398 196.688 165.562 193.734 165.562C190.797 165.562 188.492 164.336 186.82 161.883V165ZM186.773 152.367C186.773 155.352 187.18 157.508 187.992 158.836C189.32 161.008 191.117 162.094 193.383 162.094C195.227 162.094 196.82 161.297 198.164 159.703C199.508 158.094 200.18 155.703 200.18 152.531C200.18 149.281 199.531 146.883 198.234 145.336C196.953 143.789 195.398 143.016 193.57 143.016C191.727 143.016 190.133 143.82 188.789 145.43C187.445 147.023 186.773 149.336 186.773 152.367Z" fill="#28A745"/>
</g>
<defs>
<clipPath id="clip0_43_12263">
<rect width="255" height="255" fill="white"/>
</clipPath>
</defs>
</svg>
