<svg width="24" height="23" viewBox="0 0 24 23" fill="none" xmlns="http://www.w3.org/2000/svg">
<g clip-path="url(#clip0_225_16160)">
<path fill-rule="evenodd" clip-rule="evenodd" d="M14.1075 1.50937C13.488 -0.503125 10.512 -0.503125 9.8925 1.50937L9.7425 1.99812C9.64994 2.29942 9.48818 2.57703 9.26909 2.81062C9.05 3.0442 8.77913 3.22783 8.47634 3.34803C8.17356 3.46823 7.84654 3.52196 7.51927 3.50528C7.192 3.4886 6.87277 3.40193 6.585 3.25163L6.12 3.00725C4.1955 2.00388 2.091 4.02069 3.1395 5.86356L3.393 6.31062C4.062 7.48937 3.4275 8.95706 2.085 9.33656L1.575 9.48031C-0.525 10.074 -0.525 12.926 1.575 13.5197L2.085 13.6634C2.39939 13.7521 2.68908 13.9072 2.93282 14.1171C3.17656 14.3271 3.36817 14.5867 3.4936 14.8768C3.61902 15.167 3.67509 15.4804 3.65768 15.794C3.64028 16.1077 3.54984 16.4136 3.393 16.6894L3.138 17.135C2.091 18.9793 4.1955 20.9961 6.1185 19.9913L6.585 19.7484C6.87277 19.5981 7.192 19.5114 7.51927 19.4947C7.84654 19.478 8.17356 19.5318 8.47634 19.652C8.77913 19.7722 9.05 19.9558 9.26909 20.1894C9.48818 20.423 9.64994 20.7006 9.7425 21.0019L9.8925 21.4906C10.512 23.5031 13.488 23.5031 14.1075 21.4906L14.2575 21.0019C14.3501 20.7006 14.5118 20.423 14.7309 20.1894C14.95 19.9558 15.2209 19.7722 15.5237 19.652C15.8264 19.5318 16.1535 19.478 16.4807 19.4947C16.808 19.5114 17.1272 19.5981 17.415 19.7484L17.88 19.9928C19.8045 20.9961 21.909 18.9793 20.8605 17.1364L20.607 16.6894C20.4502 16.4136 20.3597 16.1077 20.3423 15.794C20.3249 15.4804 20.381 15.167 20.5064 14.8768C20.6318 14.5867 20.8234 14.3271 21.0672 14.1171C21.3109 13.9072 21.6006 13.7521 21.915 13.6634L22.425 13.5197C24.525 12.926 24.525 10.074 22.425 9.48031L21.915 9.33656C21.6006 9.24786 21.3109 9.09284 21.0672 8.88288C20.8234 8.67291 20.6318 8.41333 20.5064 8.12316C20.381 7.83299 20.3249 7.5196 20.3423 7.20597C20.3597 6.89233 20.4502 6.5864 20.607 6.31062L20.862 5.865C21.909 4.02069 19.8045 2.00388 17.8815 3.00869L17.415 3.25163C17.1272 3.40193 16.808 3.4886 16.4807 3.50528C16.1535 3.52196 15.8264 3.46823 15.5237 3.34803C15.2209 3.22783 14.95 3.0442 14.7309 2.81062C14.5118 2.57703 14.3501 2.29942 14.2575 1.99812L14.1075 1.50937ZM12 15.7119C13.1656 15.7119 14.2835 15.2681 15.1077 14.4782C15.932 13.6884 16.395 12.6171 16.395 11.5C16.395 10.3829 15.932 9.31164 15.1077 8.52176C14.2835 7.73188 13.1656 7.28813 12 7.28813C10.8348 7.28813 9.71727 7.73172 8.89333 8.52133C8.06938 9.31094 7.6065 10.3819 7.6065 11.4986C7.6065 12.6152 8.06938 13.6862 8.89333 14.4758C9.71727 15.2654 10.8348 15.709 12 15.709V15.7119Z" fill="black"/>
</g>
<defs>
<clipPath id="clip0_225_16160">
<rect width="24" height="23" fill="white"/>
</clipPath>
</defs>
</svg>
