<svg width="24" height="24" viewBox="0 0 24 24" fill="none" xmlns="http://www.w3.org/2000/svg">
<g clip-path="url(#clip0_630_20996)">
<path fill-rule="evenodd" clip-rule="evenodd" d="M0 1.5L1.5 0L6.1215 3.3C6.31612 3.43893 6.4747 3.62236 6.58403 3.83502C6.69336 4.04768 6.75026 4.28339 6.75 4.5225V4.6275C6.74985 4.82472 6.78858 5.02003 6.864 5.20226C6.93941 5.3845 7.05002 5.55007 7.1895 5.6895L15.75 14.25L17.121 13.7925C17.3853 13.7046 17.6688 13.692 17.9398 13.7561C18.2108 13.8202 18.4586 13.9585 18.6555 14.1555L23.6895 19.1895C23.9707 19.4708 24.1287 19.8523 24.1287 20.25C24.1287 20.6477 23.9707 21.0292 23.6895 21.3105L21.3105 23.6895C21.0292 23.9707 20.6477 24.1287 20.25 24.1287C19.8523 24.1287 19.4708 23.9707 19.1895 23.6895L14.1555 18.6555C13.9585 18.4586 13.8202 18.2108 13.7561 17.9398C13.692 17.6688 13.7046 17.3853 13.7925 17.121L14.25 15.75L5.6895 7.1895C5.40826 6.90818 5.02679 6.75008 4.629 6.75H4.5225C4.28364 6.75002 4.04823 6.693 3.83585 6.58368C3.62348 6.47437 3.44028 6.31591 3.3015 6.1215L0 1.5ZM17.031 15.969C16.8902 15.8282 16.6992 15.7491 16.5 15.7491C16.3008 15.7491 16.1098 15.8282 15.969 15.969C15.8282 16.1098 15.7491 16.3008 15.7491 16.5C15.7491 16.6992 15.8282 16.8902 15.969 17.031L20.469 21.531C20.6098 21.6718 20.8008 21.7509 21 21.7509C21.1992 21.7509 21.3902 21.6718 21.531 21.531C21.6718 21.3902 21.7509 21.1992 21.7509 21C21.7509 20.8008 21.6718 20.6098 21.531 20.469L17.031 15.969Z" fill="black"/>
<path fill-rule="evenodd" clip-rule="evenodd" d="M23.8466 3.33444C24.0501 4.09798 24.0491 4.90163 23.8438 5.66469C23.6385 6.42776 23.2361 7.1234 22.677 7.68177C22.1178 8.24015 21.4217 8.64161 20.6583 8.84586C19.895 9.05011 19.0913 9.04997 18.3281 8.84544L8.81656 18.2249C9.10003 19.1844 9.05571 20.2109 8.6906 21.1423C8.32549 22.0737 7.66041 22.8569 6.80046 23.3681C5.94051 23.8793 4.93473 24.0894 3.94205 23.9652C2.94938 23.8409 2.02641 23.3894 1.319 22.682C0.611596 21.9746 0.160089 21.0516 0.0358295 20.0589C-0.0884298 19.0663 0.121645 18.0605 0.632856 17.2005C1.14407 16.3406 1.92726 15.6755 2.85869 15.3104C3.79011 14.9453 4.81663 14.901 5.77606 15.1844L15.1541 5.67294C14.9469 4.90906 14.945 4.10408 15.1483 3.33919C15.3517 2.57431 15.7531 1.87658 16.3122 1.31641C16.8714 0.756236 17.5683 0.35343 18.3328 0.14863C19.0973 -0.0561703 19.9023 -0.0557197 20.6666 0.149936L17.4536 3.36294L17.9996 5.99994L20.6351 6.54594L23.8466 3.33444ZM3.79156 16.8629L4.50106 16.4999L5.20756 16.8629L6.00106 16.9019L6.43156 17.5694L7.09906 17.9999L7.13806 18.7934L7.49956 19.4999L7.13656 20.2064L7.09756 20.9999L6.43006 21.4304L5.99956 22.0979L5.20606 22.1369L4.49956 22.4999L3.79306 22.1369L2.99956 22.0979L2.56906 21.4304L1.90156 20.9999L1.86256 20.2064L1.49956 19.4999L1.86256 18.7934L1.90156 17.9999L2.56906 17.5694L2.99956 16.9019L3.79306 16.8629H3.79156Z" fill="black"/>
</g>
<defs>
<clipPath id="clip0_630_20996">
<rect width="24" height="24" fill="white"/>
</clipPath>
</defs>
</svg>
