<svg width="24" height="24" viewBox="0 0 24 24" fill="none" xmlns="http://www.w3.org/2000/svg">
<g clip-path="url(#clip0_630_20873)">
<path fill-rule="evenodd" clip-rule="evenodd" d="M19.2449 10.059C18.9558 8.97926 18.4289 7.97778 17.7029 7.12784C16.9769 6.2779 16.07 5.60099 15.0487 5.14663C14.0274 4.69227 12.9175 4.47195 11.8 4.50177C10.6826 4.5316 9.58602 4.81083 8.5904 5.31902C8.50255 5.36374 8.40675 5.39071 8.30847 5.3984C8.21019 5.40609 8.11136 5.39435 8.01762 5.36385C7.92388 5.33334 7.83706 5.28468 7.76213 5.22062C7.6872 5.15657 7.62562 5.07838 7.5809 4.99052C7.53619 4.90267 7.50922 4.80687 7.50152 4.70859C7.49383 4.61031 7.50558 4.51148 7.53608 4.41774C7.56658 4.324 7.61525 4.23718 7.67931 4.16225C7.74336 4.08732 7.82155 4.02574 7.9094 3.98102C9.80401 3.01428 11.9798 2.74979 14.0508 3.23447C16.1219 3.71915 17.9543 4.92167 19.2232 6.62875C20.4921 8.33584 21.1153 10.4371 20.9824 12.56C20.8495 14.6828 19.9691 16.69 18.4972 18.2255C17.0254 19.761 15.0573 20.7257 12.9419 20.9483C10.8266 21.1709 8.70082 20.6371 6.94157 19.4416C5.18231 18.2461 3.90332 16.4662 3.33142 14.4175C2.75953 12.3689 2.9317 10.1838 3.8174 8.25002C3.85847 8.1604 3.9168 8.07974 3.98904 8.01265C4.06128 7.94556 4.14603 7.89336 4.23845 7.85903C4.33087 7.82469 4.42914 7.8089 4.52767 7.81254C4.62619 7.81619 4.72303 7.8392 4.81265 7.88027C4.90228 7.92135 4.98294 7.97967 5.05003 8.05191C5.11712 8.12415 5.16932 8.2089 5.20365 8.30132C5.23799 8.39374 5.25378 8.49201 5.25014 8.59054C5.24649 8.68906 5.22347 8.7859 5.1824 8.87552C4.68094 9.9697 4.45019 11.1685 4.50963 12.3707C4.56908 13.5728 4.91697 14.743 5.52394 15.7824C6.1309 16.8217 6.9791 17.6997 7.99688 18.3423C9.01466 18.9848 10.1721 19.3729 11.3715 19.4738C12.5709 19.5748 13.7769 19.3856 14.8878 18.9222C15.9986 18.4588 16.9817 17.7349 17.7538 16.8116C18.5259 15.8883 19.0645 14.7927 19.3241 13.6174C19.5836 12.4421 19.5564 11.2216 19.2449 10.059Z" fill="black"/>
<path fill-rule="evenodd" clip-rule="evenodd" d="M11.7814 0.218998C11.7117 0.149153 11.6289 0.0937388 11.5378 0.0559291C11.4467 0.0181194 11.349 -0.00134277 11.2504 -0.00134277C11.1517 -0.00134277 11.054 0.0181194 10.9629 0.0559291C10.8718 0.0937388 10.789 0.149153 10.7194 0.218998L6.96936 3.969C6.89952 4.03867 6.8441 4.12143 6.80629 4.21255C6.76849 4.30367 6.74902 4.40135 6.74902 4.5C6.74902 4.59865 6.76849 4.69633 6.80629 4.78745C6.8441 4.87857 6.89952 4.96133 6.96936 5.031L10.7194 8.781C10.8602 8.92183 11.0512 9.00095 11.2504 9.00095C11.4495 9.00095 11.6405 8.92183 11.7814 8.781C11.9222 8.64017 12.0013 8.44916 12.0013 8.25C12.0013 8.05083 11.9222 7.85983 11.7814 7.719L8.56086 4.5L11.7814 1.281C11.8512 1.21133 11.9066 1.12857 11.9444 1.03745C11.9822 0.946331 12.0017 0.848649 12.0017 0.749998C12.0017 0.651347 11.9822 0.553665 11.9444 0.462547C11.9066 0.37143 11.8512 0.288666 11.7814 0.218998Z" fill="black"/>
</g>
<defs>
<clipPath id="clip0_630_20873">
<rect width="24" height="24" fill="white"/>
</clipPath>
</defs>
</svg>
